<?xml version="1.0" encoding="utf-8"?>
<!-- Generator: Adobe Illustrator 21.0.0, SVG Export Plug-In . SVG Version: 6.00 Build 0)  -->
<svg version="1.1" id="Layer_1" xmlns="http://www.w3.org/2000/svg" xmlns:xlink="http://www.w3.org/1999/xlink" x="0px" y="0px"
	 viewBox="0 0 153 32" style="enable-background:new 0 0 153 32;" xml:space="preserve">
<style type="text/css">
	.st0{fill:#FFFFFF;}
	.st1{fill:#3198E8;}
</style>
<g>
	<ellipse id="path-3" class="st0" cx="15.6" cy="16.5" rx="14.5" ry="14.7"/>
</g>
<g>
	<path id="path-1" class="st0" d="M13.3,19.2c0.1,0,0.2-0.1,0.3-0.1c1.7-0.4,3.5,0.7,3.9,2.4c0,0.1,0.1,0.3,0.1,0.4
		c0.4,1.6,2,2.7,3.6,2.5c1.6-0.2,2.9-1.5,3-3.1c0.1-1.6-0.9-3.1-2.4-3.5c-0.7-0.2-1.4-0.2-2.1,0.1c-1.6,0.5-3.2-0.3-3.9-1.6
		c-0.1-0.2-0.1-0.4,0-0.6c0.7-1.2,2.1-1.9,3.4-1.7c0.3,0,0.5,0.1,0.8,0.2c1.4,0.3,2.8-0.2,3.6-1.4c0.8-1.1,0.6-3-0.1-4
		c-1.2-1.7-3.7-1.6-4.7-0.7c-0.7,0.6-1.1,1.3-1.3,2.2c-0.3,1.3-1.2,2.2-2.5,2.5c-0.6,0.2-1.2,0.1-1.8-0.1c0-0.2,0-0.4,0-0.6
		c0.1-0.8,0.5-1.5,1.1-2.1c0.9-0.9,1.3-1.9,1.1-3.2c-0.3-1.7-1.8-2.9-3.6-2.7C10,4.2,8.5,6.1,8.8,8C9,8.8,9.4,9.5,10,10.1
		c0.8,0.7,1.1,1.6,1,2.6c-1.4,0.6-2.2,1.6-2.2,3.1c0,1.6,0.8,2.7,2.2,3.3c0,1-0.3,1.9-1.1,2.6c-0.6,0.6-1,1.3-1.1,2.1
		c-0.1,1,0,1.9,0.8,2.6c0.2,0.2,0.4,0.4,0.6,0.5c0.2,0.2,0.4,0.3,0.6,0.4c1.5,0.6,3.2,0.2,4.1-1.2c0.9-1.3,0.8-3.1-0.3-4.3
		c-0.1-0.2-0.3-0.3-0.4-0.4C13.6,21,13.3,20.1,13.3,19.2z M31.7,16.1C31.8,24.4,25,32,15.9,32C6.8,32,0,24.6,0,16
		C0,7.1,7.1,0,15.9,0C24.8,0,31.8,7.4,31.7,16.1z"/>
</g>
<title>ktbs biru</title>
<desc>Created with Sketch.</desc>
<g id="desktop---landing-page-copy-6" transform="translate(-29.000000, -19.000000)">
	<g id="header">
		<g id="ktbs-biru" transform="translate(29.000000, 19.000000)">
			<g id="Icon-Logo-Ktbs-Copy" transform="translate(122.000000, 16.000000)">
			</g>
			<g id="Group-2">
				<g id="Path-14">
					<g id="Mask">
						<path id="path-1_1_" class="st1" d="M13.3,19.2c0.1,0,0.2-0.1,0.3-0.1c1.7-0.4,3.5,0.7,3.9,2.4c0,0.1,0.1,0.3,0.1,0.4
							c0.4,1.6,2,2.7,3.6,2.5c1.6-0.2,2.9-1.5,3-3.1c0.1-1.6-0.9-3.1-2.4-3.5c-0.7-0.2-1.4-0.2-2.1,0.1c-1.6,0.5-3.2-0.3-3.9-1.6
							c-0.1-0.2-0.1-0.4,0-0.6c0.7-1.2,2.1-1.9,3.4-1.7c0.3,0,0.5,0.1,0.8,0.2c1.4,0.3,2.8-0.2,3.6-1.4c0.8-1.1,0.6-3-0.1-4
							c-1.2-1.7-3.7-1.6-4.7-0.7c-0.7,0.6-1.1,1.3-1.3,2.2c-0.3,1.3-1.2,2.2-2.5,2.5c-0.6,0.2-1.2,0.1-1.8-0.1c0-0.2,0-0.4,0-0.6
							c0.1-0.8,0.5-1.5,1.1-2.1c0.9-0.9,1.3-1.9,1.1-3.2c-0.3-1.7-1.8-2.9-3.6-2.7C10,4.2,8.5,6.1,8.8,8C9,8.8,9.4,9.5,10,10.1
							c0.8,0.7,1.1,1.6,1,2.6c-1.4,0.6-2.2,1.6-2.2,3.1c0,1.6,0.8,2.7,2.2,3.3c0,1-0.3,1.9-1.1,2.6c-0.6,0.6-1,1.3-1.1,2.1
							c-0.1,1,0,1.9,0.8,2.6c0.2,0.2,0.4,0.4,0.6,0.5c0.2,0.2,0.4,0.3,0.6,0.4c1.5,0.6,3.2,0.2,4.1-1.2c0.9-1.3,0.8-3.1-0.3-4.3
							c-0.1-0.2-0.3-0.3-0.4-0.4C13.6,21,13.3,20.1,13.3,19.2z M31.7,16.1C31.8,24.4,25,32,15.9,32C6.8,32,0,24.6,0,16
							C0,7.1,7.1,0,15.9,0C24.8,0,31.8,7.4,31.7,16.1z"/>
					</g>
					<g id="Oval">
						<ellipse id="path-3_1_" class="st1" cx="15.6" cy="16.5" rx="14.5" ry="14.7"/>
					</g>
				</g>
				<path id="Fill-30" class="st0" d="M11.9,18v0.4c0,0.9,0,1.8,0,2.7c0,0.2-0.1,0.5-0.2,0.7c-0.4,0.6-0.7,1.2-1.1,1.9
					c-0.4,0.7-0.1,1.7,0.6,2.1c0.7,0.4,1.6,0.2,2-0.5c0.3-0.5,0.3-1.1,0-1.6c-0.3-0.6-0.7-1.2-1-1.8c-0.1-0.2-0.2-0.4-0.2-0.6
					c0-1,0-1.9,0-2.9c0-0.1,0-0.2,0-0.3c0.3-0.1,0.6-0.2,0.9-0.4c0.3-0.2,0.5-0.4,0.8-0.6c0,0,0.1,0,0.2,0.1
					c1.4,0.7,2.7,1.5,4.1,2.2c0.2,0.1,0.3,0.2,0.4,0.4c0.3,0.7,0.7,1.3,1,2c0.4,0.7,1.1,0.9,1.8,0.7c0.7-0.2,1.1-0.9,1-1.7
					c-0.1-0.7-0.7-1.3-1.5-1.3c-0.7,0-1.3-0.1-2-0.1c-0.2,0-0.4-0.1-0.6-0.2c-1.3-0.7-2.7-1.5-4-2.2c-0.1,0-0.2-0.1-0.3-0.2
					c0.2-0.6,0.2-1.2,0-1.7c0.1-0.1,0.1-0.1,0.2-0.1c1.4-0.8,2.8-1.5,4.2-2.3c0.1-0.1,0.3-0.1,0.5-0.1c0.7,0,1.4-0.1,2-0.1
					c0.8,0,1.4-0.7,1.5-1.4c0.1-0.8-0.4-1.5-1.2-1.6c-0.7-0.2-1.4,0.2-1.7,0.8c-0.3,0.6-0.6,1.2-0.9,1.8c-0.1,0.2-0.3,0.4-0.5,0.5
					c-1.3,0.7-2.6,1.4-3.9,2.2c-0.1,0-0.2,0.1-0.3,0.1c-0.4-0.6-0.9-0.9-1.6-1v-0.4c0-0.7,0-1.3,0-2c-0.1-0.8,0.1-1.5,0.6-2.1
					C13,8.9,13.2,8.5,13.4,8c0.4-0.8,0-1.8-0.8-2.1c-0.8-0.3-1.8,0.1-2,1c-0.1,0.4-0.1,0.8,0.1,1.2c0.3,0.6,0.7,1.2,1,1.8
					c0.1,0.2,0.1,0.3,0.1,0.6c0,1,0,1.9,0,2.9c0,0.1,0,0.2,0,0.3c-0.3,0.1-0.7,0.3-1,0.4c-0.3,0.2-0.6,0.5-0.7,0.8
					c-0.2,0.3-0.2,0.7-0.2,1C10,17,10.6,17.6,11.9,18 M13.1,19.1c0,1,0.3,1.8,0.9,2.5c0.1,0.2,0.3,0.3,0.4,0.4
					c1.1,1.2,1.2,3,0.3,4.3c-0.9,1.3-2.6,1.8-4.1,1.2c-0.2-0.1-0.4-0.3-0.6-0.4c-0.2-0.2-0.4-0.4-0.6-0.5c-0.8-0.7-1-1.6-0.8-2.6
					c0.1-0.8,0.5-1.5,1.1-2.1c0.8-0.7,1.1-1.6,1.1-2.6c-1.5-0.7-2.3-1.7-2.2-3.3c0-1.5,0.8-2.5,2.2-3.1c0.1-1-0.3-1.9-1-2.6
					c-0.6-0.6-1-1.3-1.2-2.1C8.3,6,9.8,4.1,11.8,4c1.8-0.1,3.3,1.1,3.6,2.8c0.2,1.2-0.1,2.3-1.1,3.2c-0.6,0.6-1,1.3-1.1,2.1
					c0,0.2,0,0.4,0,0.6c0.6,0.2,1.2,0.3,1.8,0.1c1.3-0.4,2.2-1.2,2.5-2.5C17.6,9.3,18,8.6,18.7,8c1.1-0.8,3.5-0.9,4.7,0.7
					c0.7,1,0.9,2.9,0.1,4c-0.8,1.1-2.2,1.7-3.6,1.4c-0.3-0.1-0.5-0.1-0.8-0.2c-1.4-0.2-2.8,0.5-3.4,1.7c-0.1,0.2-0.1,0.4,0,0.6
					c0.7,1.3,2.4,2.1,3.9,1.6c0.7-0.2,1.4-0.3,2.1-0.1c1.5,0.4,2.6,1.9,2.4,3.5c-0.1,1.6-1.4,3-3,3.1c-1.7,0.2-3.2-0.9-3.6-2.5
					c0-0.1-0.1-0.3-0.1-0.4c-0.5-1.7-2.2-2.8-3.9-2.4C13.4,19,13.3,19.1,13.1,19.1"/>
				<path id="Fill-31" class="st1" d="M11.9,18c-1.3-0.4-1.9-1-1.9-2c0-0.4,0.1-0.7,0.2-1c0.2-0.3,0.4-0.6,0.7-0.8
					c0.3-0.2,0.6-0.3,1-0.4c0-0.1,0-0.2,0-0.3c0-1,0-1.9,0-2.9c0-0.2,0-0.4-0.1-0.6c-0.4-0.6-0.7-1.2-1-1.8
					c-0.2-0.4-0.3-0.8-0.1-1.2c0.3-0.9,1.2-1.3,2-1c0.8,0.3,1.2,1.3,0.8,2.1c-0.2,0.4-0.4,0.9-0.7,1.3c-0.4,0.6-0.6,1.3-0.6,2.1
					c0.1,0.7,0,1.3,0,2v0.4c0.7,0.1,1.2,0.4,1.6,1c0.1-0.1,0.2-0.1,0.3-0.1c1.3-0.7,2.6-1.4,3.9-2.2c0.2-0.1,0.4-0.3,0.5-0.5
					c0.3-0.6,0.6-1.2,0.9-1.8c0.4-0.7,1-1,1.7-0.8c0.8,0.2,1.2,0.9,1.2,1.6c-0.1,0.8-0.7,1.4-1.5,1.4c-0.7,0-1.4,0.1-2,0.1
					c-0.2,0-0.3,0-0.5,0.1c-1.4,0.8-2.8,1.5-4.2,2.3C14,14.9,14,15,13.9,15c0.2,0.6,0.2,1.2,0,1.7c0.1,0.1,0.2,0.1,0.3,0.2
					c1.3,0.7,2.7,1.5,4,2.2c0.2,0.1,0.4,0.2,0.6,0.2c0.7,0,1.3,0.1,2,0.1c0.8,0,1.4,0.6,1.5,1.3c0.1,0.7-0.3,1.5-1,1.7
					c-0.7,0.2-1.5,0-1.8-0.7c-0.4-0.6-0.7-1.3-1-2c-0.1-0.2-0.2-0.3-0.4-0.4c-1.4-0.7-2.7-1.5-4.1-2.2c-0.1,0-0.1-0.1-0.2-0.1
					c-0.3,0.2-0.5,0.5-0.8,0.6c-0.3,0.2-0.6,0.2-0.9,0.4c0,0.1,0,0.2,0,0.3c0,1,0,1.9,0,2.9c0,0.2,0.1,0.4,0.2,0.6
					c0.3,0.6,0.7,1.2,1,1.8c0.3,0.5,0.3,1.1,0,1.6c-0.4,0.7-1.3,0.9-2,0.5c-0.7-0.4-1-1.3-0.6-2.1c0.3-0.6,0.7-1.2,1.1-1.9
					c0.1-0.2,0.2-0.4,0.2-0.7c0-0.9,0-1.8,0-2.7V18z"/>
			</g>
			<g id="Group" transform="translate(39.000000, 7.000000)">
				<path id="Fill-3" class="st1" d="M4.8,10.2c-0.2,0.2-0.4,0.4-0.6,0.6c-0.3,0.3-0.6,0.7-0.9,1c-0.2,0.2-0.2,0.3-0.2,0.5
					c0,1.5,0,3.1,0,4.6v0.5h-3V0.7h3c0,0.4,0,0.8,0,1.1c0,0.4,0,0.8,0,1.1v1.2v1.2v1.1v1.2c0,0,0.1,0,0.1,0c0.1-0.1,0.2-0.2,0.3-0.3
					C5.4,5.3,7.3,3.2,9.2,1c0.2-0.2,0.4-0.3,0.7-0.3c1.1,0,2.1,0,3.2,0h0.4c0,0,0,0,0,0.1c0,0,0,0,0,0c0,0,0,0.1-0.1,0.1
					C11.2,3.3,9,5.6,6.8,8c0,0,0,0,0,0.1c2.5,3.1,5,6.2,7.5,9.3c-0.1,0-0.2,0.1-0.2,0.1c-1.1,0-2.2,0-3.3,0c-0.2,0-0.3-0.1-0.5-0.3
					c-1.5-1.9-3-3.9-4.6-5.8c-0.2-0.3-0.5-0.6-0.7-0.9C5,10.4,4.9,10.3,4.8,10.2"/>
				<path id="Fill-5" class="st1" d="M45.9,7.3v0.4c0,1,0,2.1,0,3.1c0,0.9,0,1.8,0,2.8c0,0.7,0.3,1.1,1,1.3c0.4,0.1,0.8,0.1,1.1,0.1
					c1.5,0,2.3-0.6,2.6-2.1c0.2-1,0.2-2.1,0.1-3.2c0-0.5-0.2-1-0.4-1.5c-0.3-0.6-0.8-1-1.5-1.2C47.9,7,46.9,7.1,45.9,7.3z M42.9,0.2
					h3v4.7c0.5-0.1,1-0.1,1.5-0.2c0.9-0.1,1.7,0,2.5,0.2c1.8,0.5,3,1.6,3.6,3.4c0.6,1.9,0.6,3.9-0.1,5.8c-0.7,2-2.1,3.1-4.2,3.4
					c-1.3,0.2-2.5,0.1-3.7-0.4c-1.4-0.5-2.3-1.5-2.5-3c-0.1-0.3-0.1-0.6-0.1-0.9c0-4.2,0-8.5,0-12.7L42.9,0.2z"/>
				<path id="Fill-7" class="st1" d="M37.7,11.5c-0.1,0-0.1-0.1-0.2-0.1c-0.8-0.1-1.6-0.2-2.4-0.1c-0.4,0-0.8,0.2-1.2,0.3
					c-0.4,0.1-0.7,0.4-0.8,0.8c-0.3,1,0.2,2,1.3,2.3c0.7,0.2,1.4,0.2,2.1,0c0.7-0.2,1.2-0.7,1.3-1.4C37.8,12.8,37.7,12.2,37.7,11.5
					 M37.7,9.6c0-1.3-0.7-2.2-2.1-2.3c-1.3-0.1-2.6,0-3.9,0.4c-0.1,0-0.3,0.1-0.4,0.1c-0.1-0.3-0.1-1.9,0-2.4
					c0.6-0.3,1.2-0.4,1.9-0.5c1.3-0.2,2.5-0.3,3.8,0c2.1,0.5,3.5,1.9,3.7,4.2c0.1,1.1,0.1,2.2,0.1,3.4c0,0.5,0,1,0,1.4
					c-0.1,1.4-0.9,2.3-2.1,3c-0.7,0.4-1.5,0.6-2.2,0.6c-1.1,0.1-2.3,0.1-3.4-0.3c-1.3-0.4-2.3-1.2-2.8-2.5c-0.3-0.8-0.4-1.5-0.2-2.3
					c0.2-1.1,0.9-1.8,1.8-2.4c0.8-0.4,1.6-0.6,2.5-0.7c0.9-0.1,1.9-0.1,2.8,0.1C37.3,9.6,37.5,9.6,37.7,9.6"/>
				<path id="Fill-9" class="st1" d="M79.5,11.5c-0.1,0-0.1,0-0.2-0.1c-0.8-0.1-1.6-0.2-2.4-0.1c-0.4,0-0.8,0.2-1.2,0.3
					c-0.4,0.1-0.7,0.4-0.8,0.8c-0.4,0.9,0.1,2,1.1,2.4c0.8,0.3,1.7,0.3,2.5,0c0.6-0.2,1-0.7,1-1.3C79.6,12.8,79.5,12.2,79.5,11.5
					 M73.1,7.8V5.5c0,0,0.1-0.1,0.1-0.1c1.9-0.7,3.9-0.9,5.9-0.4c2,0.5,3.1,1.8,3.4,3.8c0.1,0.4,0.1,0.8,0.1,1.2c0,1.1,0,2.3,0,3.4
					c0,1.8-1,3.2-2.7,3.8c-1.2,0.4-2.4,0.5-3.6,0.4c-0.6-0.1-1.3-0.2-1.9-0.4c-2.3-0.9-2.9-3-2.5-4.7c0.3-1.1,0.9-1.9,2-2.4
					c0.7-0.4,1.5-0.5,2.3-0.6c0.9-0.1,1.9-0.1,2.8,0.1c0.2,0,0.3,0,0.5,0c0.2-0.8-0.3-1.6-1-2c-0.5-0.3-1.1-0.3-1.7-0.3
					c-1.2,0-2.3,0.1-3.4,0.5C73.3,7.8,73.2,7.8,73.1,7.8"/>
				<path id="Fill-11" class="st1" d="M61.7,14c0.2,0.1,0.3,0.1,0.4,0.2c1.3,0.7,2.7,1,4.1,0.8c0.1,0,0.2,0,0.3-0.1
					c0.4-0.1,0.7-0.3,0.8-0.8c0.1-0.5,0-0.9-0.5-1.2c-0.3-0.2-0.6-0.3-1-0.4c-0.6-0.2-1.1-0.3-1.7-0.5c-0.5-0.2-0.9-0.4-1.3-0.6
					c-1-0.6-1.5-1.4-1.6-2.5c-0.1-1.8,0.8-3.2,2.5-3.8c1.9-0.7,3.8-0.5,5.6,0.5c0,0,0.1,0,0.1,0.1v2.2c-0.1-0.1-0.3-0.1-0.4-0.1
					c-1.2-0.4-2.5-0.6-3.7-0.3c-0.2,0-0.4,0.1-0.5,0.2c-0.6,0.3-0.6,1-0.1,1.4c0.2,0.2,0.5,0.3,0.7,0.3c0.5,0.2,1,0.3,1.5,0.5
					c0.5,0.2,0.9,0.3,1.4,0.5c1.3,0.6,1.9,1.7,2,3.1c0,0.6,0,1.2-0.3,1.8c-0.4,0.8-1,1.4-1.8,1.8c-0.6,0.3-1.3,0.5-1.9,0.5
					c-1.6,0.1-3-0.1-4.4-0.8c-0.1-0.1-0.2-0.1-0.3-0.2V14z"/>
				<path id="Fill-13" class="st1" d="M22.6,7.5h-2.1V4.9h2.1c0-0.6,0-1.3,0-1.9c0-0.6,0-1.2,0-1.8h3c0,1.2,0,2.4,0,3.7h3
					c0,0.9,0,1.7,0,2.6h-3c0,0.1,0,0.3,0,0.4c0,1.9,0,3.9,0,5.8c0,0.2,0,0.4,0.1,0.6c0.1,0.4,0.3,0.7,0.8,0.8
					c0.6,0.1,1.2,0.1,1.8-0.1c0.1,0,0.2-0.1,0.4-0.1v2.4c-0.4,0.2-0.8,0.3-1.2,0.3c-0.7,0.1-1.5,0.1-2.2-0.1
					c-1.4-0.4-2.2-1.4-2.5-2.8c-0.1-0.5-0.1-0.9-0.1-1.4c0-1.8,0-3.6,0-5.3V7.5z"/>
				<path id="Fill-17" class="st1" d="M56.2,5h3v12.5c-1,0-2,0-3,0V5z"/>
				<path id="Fill-19" class="st1" d="M18.8,17.4h-2.9c-0.1-0.3-0.1-11.9,0-12.5h2.9C18.8,5.2,18.9,17,18.8,17.4"/>
				<path id="Fill-25" class="st1" d="M18.8,0.5v2.6c-0.3,0.1-2.4,0.1-3.1,0c-0.1-0.3-0.1-2.1,0-2.7C16,0.5,18.2,0.4,18.8,0.5"/>
				<polygon id="Fill-27" class="st1" points="56.1,3.2 59.2,3.2 59.2,0.5 56.1,0.5 				"/>
				<path id="_x2E_com" class="st1" d="M83.9,17.3v-1.9h2.1v1.9H83.9z M86.8,13.6c0-1.3,0.3-2.3,0.9-2.9c0.6-0.7,1.5-1,2.7-1
					c0.8,0,1.5,0.1,2.2,0.4v1.5c-0.6-0.2-1.2-0.4-1.9-0.4c-0.7,0-1.2,0.2-1.6,0.5c-0.3,0.3-0.5,1-0.5,1.9c0,0.9,0.2,1.5,0.5,1.9
					s0.9,0.5,1.6,0.5c0.6,0,1.3-0.1,1.9-0.4v1.5c-0.7,0.3-1.5,0.4-2.2,0.4c-1.2,0-2.1-0.3-2.7-1S86.8,14.8,86.8,13.6z M93.8,13.6
					c0-1.3,0.3-2.3,0.9-2.9s1.5-1,2.7-1s2.1,0.3,2.7,1s0.9,1.7,0.9,2.9s-0.3,2.3-0.9,2.9c-0.6,0.7-1.5,1-2.7,1s-2.1-0.3-2.7-1
					C94.1,15.8,93.8,14.8,93.8,13.6z M95.6,13.6c0,1,0.2,1.7,0.5,2c0.3,0.3,0.8,0.5,1.4,0.5s1.1-0.2,1.4-0.5c0.3-0.3,0.4-1,0.4-2
					s-0.1-1.7-0.4-2S98,11,97.4,11s-1.1,0.2-1.4,0.5S95.6,12.6,95.6,13.6z M102.2,17.5v-7.1c1.2-0.6,2.3-0.9,3.4-0.9h0
					c0.8,0,1.5,0.2,2.1,0.6c1-0.4,1.9-0.6,2.8-0.6c1.1,0,1.9,0.3,2.5,0.9s0.9,1.4,0.9,2.4v4.7H112v-4.8c0-0.5-0.1-0.9-0.4-1.1
					c-0.3-0.3-0.7-0.4-1.4-0.4c-0.5,0-1.1,0.1-1.6,0.2c0.2,0.2,0.3,0.7,0.3,1.5v4.7h-1.9v-4.9c0-0.5-0.1-0.8-0.4-1.1
					c-0.2-0.2-0.7-0.4-1.4-0.4c-0.4,0-0.9,0-1.3,0.1v6.2H102.2z"/>
			</g>
		</g>
	</g>
</g>
</svg>
