<?xml version="1.0" encoding="utf-8"?>
<!-- Generator: Adobe Illustrator 17.1.0, SVG Export Plug-In . SVG Version: 6.00 Build 0)  -->
<!DOCTYPE svg PUBLIC "-//W3C//DTD SVG 1.1//EN" "http://www.w3.org/Graphics/SVG/1.1/DTD/svg11.dtd">
<svg version="1.1" id="Layer_1" xmlns="http://www.w3.org/2000/svg" xmlns:xlink="http://www.w3.org/1999/xlink" x="0px" y="0px"
	 viewBox="0 0 97.9 49.1" enable-background="new 0 0 97.9 49.1" xml:space="preserve">
<path fill="#FFFFFF" d="M76.6,49.1c0.1-2.2,0.2-4.6,0.4-7.3C55.3,38.1,26.6,40,6.5,47.1c-0.4,0.1-0.6,0.1-0.8-0.2
	c-0.3-0.6-0.6-1.5-0.9-1.5c-0.4,0-0.4,0-0.7-0.4c-0.5-0.7-0.5-1.5-0.6-1.9s-0.2-0.6,0.1-0.9c0.4-0.4,1.4-0.8,2.2-1.2
	c0.4-0.1,0.4-0.4,0.4-0.7c0-0.1,0-0.2-0.1-0.1c-1.7,0.6-3.6,1.6-4.4,2.1c-0.4,0.3-0.7-0.1-0.9-0.7c-0.2-0.9-0.4-1.4-0.5-1.9
	c-0.1-0.8-0.1-1.5,0.1-2.3c0-0.6-0.2-1.4-0.2-2.1s0.1-1.1,0.8-1.7c-0.1-0.6-0.1-1-0.1-1.4c0-0.6-0.1-0.8,0.6-1.3
	c0.6-0.5,2.1-1.4,3.3-1.9c-0.1-0.9,0.1-1.3,0.7-1.6c14.3-7.3,46.1-17.6,74-18.8C79.6,5,79.9,2.2,80.2,0c5.6,7.7,12.7,18.5,17.7,28.2
	C90.8,35.7,83.8,42.6,76.6,49.1z"/>
<g>
</g>
<g>
	<path fill="#F26822" d="M76.5,49.1c0.1-2.2,0.2-4.6,0.4-7.3c-21.7-3.7-50.4-1.8-70.5,5.3c-0.4,0.1-0.6,0.1-0.8-0.2
		c-0.3-0.6-0.6-1.5-0.9-1.5c-0.4,0-0.4,0-0.7-0.4c-0.5-0.7-0.5-1.5-0.6-1.9s-0.2-0.6,0.1-0.9c0.4-0.4,1.4-0.8,2.2-1.2
		C6,40.9,6,40.6,6,40.3c0-0.1,0-0.2-0.1-0.1c-1.7,0.6-3.6,1.6-4.4,2.1c-0.4,0.3-0.7-0.1-0.9-0.7c-0.2-0.9-0.4-1.4-0.5-1.9
		c-0.1-0.8-0.1-1.5,0.1-2.3c0-0.6-0.2-1.4-0.2-2.1s0.1-1.1,0.8-1.7c-0.1-0.6-0.1-1-0.1-1.4c0-0.6-0.1-0.8,0.6-1.3
		c0.6-0.5,2.1-1.4,3.3-1.9c-0.1-0.9,0.1-1.3,0.7-1.6C19.5,20,51.3,9.7,79.3,8.5c0.3-3.5,0.6-6.3,0.9-8.5
		c5.6,7.7,12.7,18.5,17.7,28.2C90.7,35.7,83.7,42.7,76.5,49.1z M16.7,36.5c-0.6-0.8-2.2-0.9-3.5-1.4s-1.4-1-0.9-2.4
		c0.4-1.1,1.3-2.6,1.7-2.4c0.6,0.2,0.3,2.4,0,3.7c-0.1,0.4,0.1,0.5,0.4,0.5c0.4,0,1.1-0.1,1.6-1c0.2-0.6,0.4-1.5,0.5-2.3
		c0.1-1-0.4-2-2.2-2.8c-1.3-0.5-2.2-0.7-3-0.3c-1.3,0.6-2.4,2.2-3,3.8c-1.6,4.5,0.6,5.4,2.7,5.8c1.7,0.4,3.2,0.5,3.6,1.1
		c-0.6,1-4,1-6,0.4c-0.4-0.1-0.5,0.1-0.4,0.4c0.4,1.3,1.5,1.8,2.7,1.9c0.9,0.1,2.1,0.2,3.2,0.1c1.7-0.4,2.5-1.3,2.8-2.6
		C17.4,37.8,17.1,37,16.7,36.5z M23.4,23.9c-2.2,0.3-4.8,1.7-6,3.5c-0.3,0.4-0.3,0.7,0.1,0.9c0.4,0.3,0.7,0.5,1,0.7
		c-0.4,2.6-0.4,6-0.1,7.7c0.2,1.2,0.4,1.5,1.2,1.9c0.8,0.4,1.5,0.7,2.2,0.8c0.7,0.1,0.8-0.3,0.7-0.6c-0.3-0.9-0.4-2.2-0.4-3.8
		c2.7-0.9,5-3.1,5.8-4.8c1-1.9,1.1-3.3-0.1-4.8C26.8,24.1,25.2,23.6,23.4,23.9z M22.2,31.9c0.1-1.4,0.2-2.7,0.4-4
		c1.4-1.1,3.1-1.7,4.1-1.3C27,28.2,25,30.6,22.2,31.9z M38.9,34.6c-1.2-0.1-3.7,0.1-5.7,0.4c0-0.8,0.1-1.9,0.2-3.1
		c1.4-0.4,3-0.9,4.4-1.2c0.4-0.1,0.4-0.3,0.3-0.6c-0.1-0.3-0.3-0.7-0.4-0.9c-0.2-0.4-0.4-0.5-1-0.5c-0.6,0-1.7,0.2-3,0.4
		c0.2-1.8,0.5-3.7,0.8-5.2c2.1-0.7,4.7-1.4,5.3-1.6s0.4-0.4,0.3-0.6c-0.1-0.2-0.4-0.7-0.6-1s-0.6-0.6-1.4-0.4
		c-2.8,0.4-6.8,1.5-8.8,2.6c-0.4,0.2-0.4,0.4-0.1,0.8c0.3,0.4,0.6,1,1,1.3c-0.5,4.1-0.9,8.8-0.7,12c0.1,0.8,0.5,1,1.6,0.9
		c1.9-0.1,5.2-0.8,7-1.2c0.5-0.1,0.8-0.3,0.9-0.5c0.2-0.4,0.3-0.8,0.4-1.2C39.2,34.7,39.2,34.7,38.9,34.6z M49.2,18.4
		c-1.9-1.2-3.2-1.3-4.5-0.4c-3.3,2.2-6.1,9.4-5,14.5c0.4,1.8,1.4,3.2,3.3,4c2.2,0.9,4.7,0.5,6.8-2.8c0.7-1.1,0.7-1.9,0.4-2.7
		c-0.1-0.3-0.4-0.3-0.6,0c-1.7,2.1-4.2,3.6-5.8,3.3c-0.8-1.2-0.9-3.8,0.1-7.3c1-3.2,3.5-6.6,4.7-6.7c0.6,0.8,0.1,3.3-0.4,4.6
		c-0.2,0.5,0,0.6,0.4,0.7c0.6,0.1,1.3,0,1.7-0.6c0.6-0.9,1-1.9,1.1-3.1C51.5,20.8,51.1,19.5,49.2,18.4z M59.1,16.3
		c0.2-0.6,0.3-1.1-0.3-1.4c-1.1-0.5-2.5,0-3.5,0.4c-0.6,0.2-0.6,0.4-0.8,1.2c-0.1,0.9-0.3,1.4-0.7,2.9c-1.2,4.3-2.2,10-2.2,13.8
		c0,1.4,0.3,1.8,0.9,2.1c0.6,0.3,1.5,0.8,2.7,0.6c0.7-0.1,0.4-0.6,0.4-0.9C55,31.3,57.3,22.1,59.1,16.3z M71.2,17.4
		c0.1-0.6,0.1-0.9-0.4-1.4c-1.4-1.6-3-2-4.2-2.2c-0.5-0.1-0.7,0.1-0.8,0.5c-0.1,0.4-0.1,0.6-0.4,1.1C61.8,21,58.2,27.9,57,33
		c-0.1,0.6-0.1,0.9,0.1,1.4c0.8,1.3,2.1,1.7,2.8,1.8c0.4,0.1,0.5-0.1,0.6-0.7c0.1-0.8,0.9-2.5,1.9-4.6c1.9-0.1,4.1,0,6,0.4
		c0.2,1.7,0.4,3.1,0.6,3.8c0.4,1.2,1.1,1.9,2,1.9c0.4,0,0.5-0.1,0.4-0.4C70.6,32.1,70.9,22.7,71.2,17.4z M63.8,28.2
		c1.2-2.2,2.6-4.8,4-6.9c0,2.6,0.1,5,0.3,7.1C67.1,28.2,65.4,28.1,63.8,28.2z M84.4,35.8c-1.6-0.3-4.2-0.6-6.3-0.9
		c0.3-5.7,2.2-13.2,4.6-20.2c0.1-0.5,0.2-0.6-0.2-0.9c-0.5-0.4-1.4-1.2-2.4-1.2c-1.2,0-1.5,0.1-2.3,0.1c-0.5,0.1-0.6,0.3-0.8,1
		c-1.7,5.8-4.6,17.1-3.9,22.4c0.1,1.2,0.4,1.4,1.3,1.6c2.4,0.3,5.3,0.4,7.7,0.4c2.2,0,2.7-1.1,2.8-1.7C84.9,36,84.8,35.9,84.4,35.8z
		"/>
</g>
</svg>
